HIERARCHY
ROOT Hips
{
	OFFSET 0.00 0.00 0.00
	CHANNELS 6 Xposition Yposition Zposition Xrotation Yrotation Zrotation
	JOINT Spine
	{
		OFFSET 0.00000 1.15266 1.72900
		CHANNELS 3 Xrotation Yrotation Zrotation
		JOINT Spine1
		{
			OFFSET 0.00000 0.40032 2.27031
			CHANNELS 3 Xrotation Yrotation Zrotation
			JOINT Spine2
			{
				OFFSET 0.00000 0.20092 2.29656
				CHANNELS 3 Xrotation Yrotation Zrotation
				JOINT Spine3
				{
					OFFSET 0.00000 0.00000 2.30533
					CHANNELS 3 Xrotation Yrotation Zrotation
					JOINT Neck
					{
						OFFSET 0.00000 -0.86449 6.05149
						CHANNELS 3 Xrotation Yrotation Zrotation
						JOINT Head
						{
							OFFSET 0.00000 -0.55043 3.12167
							CHANNELS 3 Xrotation Yrotation Zrotation
							End Site
							{
								OFFSET 0.00000 0.00000 3.73175
							}
						}
					}
					JOINT RightShoulder
					{
						OFFSET -0.78828 -1.31380 4.25672
						CHANNELS 3 Xrotation Yrotation Zrotation
						JOINT RightArm
						{
							OFFSET -3.91513 0.00000 0.00000
							CHANNELS 3 Xrotation Yrotation Zrotation
							JOINT RightForeArm
							{
								OFFSET -6.91491 0.00000 0.00000
								CHANNELS 3 Xrotation Yrotation Zrotation
								JOINT RightHand
								{
									OFFSET -6.09622 0.00000 0.00000
									CHANNELS 3 Xrotation Yrotation Zrotation
									JOINT RightHandEnd
									{
										OFFSET -1.74995 0.00000 0.00000
										CHANNELS 3 Xrotation Yrotation Zrotation
										End Site
										{
											OFFSET -1.74995 0.00000 0.00000
										}
									}
									JOINT RightHandThumb1
									{
										OFFSET -0.69998 -1.16663 -0.46665
										CHANNELS 3 Yrotation Xrotation Zrotation
										End Site
										{
											OFFSET -1.69032 -0.45292 0.00000
										}
									}
								}
							}
						}
					}
					JOINT LeftShoulder
					{
						OFFSET 0.78828 -1.31380 4.25672
						CHANNELS 3 Xrotation Yrotation Zrotation
						JOINT LeftArm
						{
							OFFSET 3.91513 0.00000 0.00000
							CHANNELS 3 Xrotation Yrotation Zrotation
							JOINT LeftForeArm
							{
								OFFSET 6.91491 0.00000 0.00000
								CHANNELS 3 Xrotation Yrotation Zrotation
								JOINT LeftHand
								{
									OFFSET 6.09622 0.00000 0.00000
									CHANNELS 3 Xrotation Yrotation Zrotation
									JOINT LeftHandEnd
									{
										OFFSET 1.74995 0.00000 0.00000
										CHANNELS 3 Xrotation Yrotation Zrotation
										End Site
										{
											OFFSET 1.74995 0.00000 0.00000
										}
									}
									JOINT LeftHandThumb1
									{
										OFFSET 0.69998 -1.16663 -0.46665
										CHANNELS 3 Yrotation Xrotation Zrotation
										End Site
										{
											OFFSET 1.69032 -0.45292 0.00000
										}
									}
								}
							}
						}
					}
				}
			}
		}
	}
	JOINT RightUpLeg
	{
		OFFSET -2.33857 0.00000 -0.68318
		CHANNELS 3 Xrotation Yrotation Zrotation
		JOINT RightLeg
		{
			OFFSET 0.00000 0.00000 -10.74496
			CHANNELS 3 Xrotation Yrotation Zrotation
			JOINT RightFoot
			{
				OFFSET 0.00000 0.00000 -10.93085
				CHANNELS 3 Xrotation Yrotation Zrotation
				JOINT RightToeBase
				{
					OFFSET 0.00000 -4.08727 -1.48765
					CHANNELS 3 Xrotation Yrotation Zrotation
					End Site
					{
						OFFSET 0.00000 -1.89187 -0.00000
					}
				}
			}
		}
	}
	JOINT LeftUpLeg
	{
		OFFSET 2.33857 0.00000 -0.68318
		CHANNELS 3 Xrotation Yrotation Zrotation
		JOINT LeftLeg
		{
			OFFSET 0.00000 0.00000 -10.74496
			CHANNELS 3 Xrotation Yrotation Zrotation
			JOINT LeftFoot
			{
				OFFSET 0.00000 0.00000 -10.93085
				CHANNELS 3 Xrotation Yrotation Zrotation
				JOINT LeftToeBase
				{
					OFFSET 0.00000 -4.08727 -1.48765
					CHANNELS 3 Xrotation Yrotation Zrotation
					End Site
					{
						OFFSET 0.00000 -1.89187 -0.00000
					}
				}
			}
		}
	}
}
MOTION
Frames: 9
Frame Time: 0.008342
 2.6197 -102.8046 24.5468 -4.5235 -1.4173 176.5798 -0.1473 -1.8692 0.2592 0.2350 -2.2697 -0.1409 2.9137 1.7827 5.9893 -0.7246 1.5122 0.2771 -4.8042 -1.0940 -0.2034 1.8809 -3.9412 -4.1149 -6.0399 5.2266 -1.7255 0.3738 -6.5974 -1.4339 0.0000 0.0000 17.0615 -7.0434 -0.9175 -14.2585 -0.0000 0.0000 -0.0000 0.0000 -0.0000 0.0000 -10.4880 -2.1278 0.7297 7.0059 8.6326 -6.7817 -0.0000 -0.0000 -2.5600 1.6592 3.2906 2.3498 -0.0000 -0.0000 0.0000 0.0000 0.0000 0.0000 -3.4974 -3.6194 -13.7904 2.0822 0.0000 0.0000 -2.8037 -0.0277 12.5038 -2.9830 0.0000 -0.0000 -1.6602 -4.9239 5.4229 4.0539 0.0000 0.0000 -8.0885 4.7977 5.4861 -1.0282 0.0000 -0.0000
 2.6172 -102.8068 24.5448 -4.5260 -1.3599 176.5606 -0.1375 -1.8114 0.2619 0.2385 -2.2595 -0.1369 2.9009 1.7733 5.9859 -0.7320 1.5045 0.2865 -4.8093 -1.0874 -0.1979 1.9012 -3.9409 -4.1040 -6.0380 5.2556 -1.7134 0.3555 -6.6335 -1.4411 0.0000 0.0000 17.0559 -7.0288 -0.9128 -14.2591 -0.0000 -0.0000 -0.0000 -0.0000 -0.0000 0.0000 -10.4807 -2.1570 0.7177 6.9841 8.6622 -6.7859 -0.0000 -0.0000 -2.5494 1.6644 3.2922 2.3544 0.0000 -0.0000 0.0000 -0.0000 -0.0000 0.0000 -3.5052 -3.5544 -13.8047 2.1098 0.0000 0.0000 -2.8512 0.2425 12.5741 -3.0965 0.0000 -0.0000 -1.6633 -4.8572 5.4245 4.0434 0.0000 0.0000 -8.0787 4.7766 5.5048 -1.0380 0.0000 -0.0000
 2.6142 -102.8108 24.5428 -4.5570 -1.2960 176.5344 -0.1501 -1.7483 0.2673 0.2393 -2.2505 -0.1363 2.8886 1.7642 5.9902 -0.7392 1.4988 0.2912 -4.8221 -1.0854 -0.1901 1.9242 -3.9373 -4.0895 -6.0423 5.2744 -1.6964 0.3335 -6.6636 -1.4522 0.0000 0.0000 17.0511 -7.0094 -0.9106 -14.2602 0.0000 -0.0000 -0.0000 -0.0000 -0.0000 0.0000 -10.4807 -2.1907 0.7030 6.9625 8.6956 -6.7871 -0.0000 -0.0000 -2.5424 1.6736 3.2820 2.3588 0.0000 -0.0000 0.0000 0.0000 0.0000 0.0000 -3.5518 -3.4826 -13.8178 2.1476 0.0000 0.0000 -2.9009 0.5259 12.6517 -3.2164 0.0000 -0.0000 -1.7034 -4.7851 5.4359 4.0405 0.0000 0.0000 -8.0666 4.7494 5.5190 -1.0500 0.0000 -0.0000
 2.6112 -102.8152 24.5408 -4.5832 -1.2386 176.5072 -0.1572 -1.6883 0.2680 0.2396 -2.2433 -0.1327 2.8796 1.7542 5.9959 -0.7486 1.4918 0.2966 -4.8383 -1.0842 -0.1821 1.9508 -3.9315 -4.0726 -6.0466 5.2884 -1.6812 0.3083 -6.6891 -1.4610 0.0000 0.0000 17.0439 -6.9889 -0.9109 -14.2609 -0.0000 0.0000 0.0000 -0.0000 -0.0000 0.0000 -10.4749 -2.2165 0.6848 6.9353 8.7171 -6.7887 -0.0000 -0.0000 -2.5370 1.6789 3.2758 2.3591 -0.0000 0.0000 -0.0000 -0.0000 -0.0000 0.0000 -3.5884 -3.4187 -13.8408 2.1730 0.0000 0.0000 -2.9406 0.8017 12.7410 -3.3375 0.0000 -0.0000 -1.7383 -4.7195 5.4407 4.0371 0.0000 0.0000 -8.0556 4.7184 5.5403 -1.0656 0.0000 -0.0000
 2.6081 -102.8198 24.5390 -4.6025 -1.1834 176.4735 -0.1583 -1.6303 0.2718 0.2421 -2.2343 -0.1315 2.8721 1.7435 6.0029 -0.7587 1.4831 0.3046 -4.8601 -1.0847 -0.1723 1.9817 -3.9216 -4.0542 -6.0580 5.3040 -1.6619 0.2836 -6.7189 -1.4741 0.0000 0.0000 17.0358 -6.9624 -0.9094 -14.2553 -0.0000 0.0000 0.0000 -0.0000 -0.0000 0.0000 -10.4706 -2.2487 0.6679 6.9068 8.7470 -6.7964 -0.0000 -0.0000 -2.5325 1.6843 3.2572 2.3563 0.0000 -0.0000 0.0000 -0.0000 -0.0000 0.0000 -3.6178 -3.3568 -13.8578 2.1936 0.0000 0.0000 -2.9747 1.0556 12.8293 -3.4518 0.0000 -0.0000 -1.7626 -4.6551 5.4539 4.0282 0.0000 0.0000 -8.0410 4.6838 5.5597 -1.0821 0.0000 -0.0000
 2.6050 -102.8246 24.5374 -4.6155 -1.1362 176.4379 -0.1540 -1.5786 0.2756 0.2446 -2.2265 -0.1300 2.8681 1.7326 6.0106 -0.7688 1.4738 0.3120 -4.8860 -1.0876 -0.1621 2.0152 -3.9081 -4.0343 -6.0725 5.3140 -1.6431 0.2598 -6.7436 -1.4860 0.0000 0.0000 17.0263 -6.9337 -0.9078 -14.2472 0.0000 0.0000 -0.0000 -0.0000 -0.0000 0.0000 -10.4651 -2.2771 0.6505 6.8764 8.7718 -6.8067 -0.0000 -0.0000 -2.5297 1.6864 3.2349 2.3482 0.0000 0.0000 0.0000 -0.0000 0.0000 0.0000 -3.6384 -3.3036 -13.8748 2.2050 0.0000 0.0000 -2.9977 1.2722 12.9159 -3.5537 0.0000 -0.0000 -1.7783 -4.5985 5.4641 4.0164 0.0000 0.0000 -8.0258 4.6475 5.5836 -1.0998 0.0000 -0.0000
 2.6021 -102.8297 24.5362 -4.6323 -1.0980 176.4007 -0.1554 -1.5348 0.2779 0.2468 -2.2198 -0.1287 2.8699 1.7221 6.0189 -0.7794 1.4627 0.3212 -4.9172 -1.0916 -0.1514 2.0498 -3.8910 -4.0137 -6.0915 5.3173 -1.6256 0.2400 -6.7610 -1.4967 0.0000 0.0000 17.0147 -6.9051 -0.9051 -14.2320 -0.0000 -0.0000 0.0000 -0.0000 -0.0000 0.0000 -10.4595 -2.2985 0.6348 6.8455 8.7903 -6.8212 -0.0000 -0.0000 -2.5300 1.6823 3.2091 2.3367 0.0000 0.0000 0.0000 0.0000 0.0000 0.0000 -3.6637 -3.2606 -13.8914 2.2104 0.0000 0.0000 -3.0089 1.4416 12.9977 -3.6385 0.0000 -0.0000 -1.7993 -4.5522 5.4756 4.0069 0.0000 0.0000 -8.0110 4.6113 5.6072 -1.1178 0.0000 -0.0000
 2.5993 -102.8349 24.5354 -4.6448 -1.0705 176.3638 -0.1560 -1.5008 0.2798 0.2489 -2.2143 -0.1275 2.8779 1.7121 6.0275 -0.7895 1.4514 0.3305 -4.9518 -1.0982 -0.1418 2.0850 -3.8706 -3.9929 -6.1140 5.3156 -1.6110 0.2245 -6.7735 -1.5053 0.0000 0.0000 17.0017 -6.8756 -0.8990 -14.2099 -0.0000 -0.0000 0.0000 -0.0000 -0.0000 0.0000 -10.4535 -2.3156 0.6195 6.8144 8.8050 -6.8394 -0.0000 -0.0000 -2.5322 1.6718 3.1806 2.3215 -0.0000 0.0000 -0.0000 0.0000 0.0000 0.0000 -3.6824 -3.2292 -13.9068 2.2060 0.0000 0.0000 -3.0067 1.5574 13.0714 -3.7030 0.0000 -0.0000 -1.8155 -4.5170 5.4854 3.9980 0.0000 0.0000 -7.9975 4.5769 5.6321 -1.1350 0.0000 -0.0000
 2.5968 -102.8399 24.5350 -4.6538 -1.0532 176.3277 -0.1572 -1.4759 0.2809 0.2505 -2.2098 -0.1267 2.8925 1.7023 6.0359 -0.7991 1.4392 0.3409 -4.9892 -1.1058 -0.1327 2.1197 -3.8470 -3.9720 -6.1400 5.3096 -1.5982 0.2160 -6.7806 -1.5133 0.0000 0.0000 16.9872 -6.8472 -0.8894 -14.1774 -0.0000 -0.0000 0.0000 -0.0000 0.0000 0.0000 -10.4481 -2.3289 0.6068 6.7852 8.8186 -6.8636 -0.0000 -0.0000 -2.5352 1.6529 3.1479 2.3031 0.0000 0.0000 0.0000 0.0000 0.0000 0.0000 -3.6971 -3.2089 -13.9176 2.1953 0.0000 0.0000 -2.9929 1.6196 13.1322 -3.7464 0.0000 -0.0000 -1.8278 -4.4929 5.4956 3.9900 0.0000 0.0000 -7.9852 4.5456 5.6558 -1.1509 0.0000 -0.0000
